# xmcd
#
# Track frame offsets:
#	150
#	15605
#	36455
#	51965
#	72395
#	90150
#	113550
#	131955
#	151275
#	162860
#	178760
#	192485
#	207395
#	222910
#	236325
#	258665
#	279230
#	301500
#
# Disc length: 4302
#
# Revision: 1
# Processed by: cddbd v1.5.1PL0 Copyright (c) Steve Scherf et al.
# Submitted via: CDex 1.51
# Normalized: r0:TDELIM( - ),TSWAP
#
DISCID=fb10cc12
DTITLE=Various Artist - ¹J¨£©¯ºÖ
DYEAR=2004
DGENRE=Jazz
TTITLE0=Takefumi Haketa - Tasogare No Begin
TTITLE1=Lim Hyung Joo - Haruyo. Koi
TTITLE2=Kansas - Dust In The Wind
TTITLE3=Ten Sharp - You
TTITLE4=The Byrds - Turn Turn Turn (To Everything There Is A Season)
TTITLE5=Clementine - Un Homme Et Une Femme (Grandis Mix)
TTITLE6=Basia - Time And Tide
TTITLE7=Anggun - La Neige Au Sahara
TTITLE8=Steve Tyrell - I've Got A Crush On You
TTITLE9=Cyndi Lauper - La Vie En Rose
TTITLE10=Bellie Holiday - I Get Alone Without You Very Well
TTITLE11=Keiko Lee - Tea For Two
TTITLE12=Sarah Vaughan - Come Rain Or Come Shine
TTITLE13=Chet Baker - Love Walked In
TTITLE14=Karla Bonoff - The Water Is Wide
TTITLE15=Richard Bona - Eyala
TTITLE16=Des'ree - I'm Kissing You
TTITLE17=Santana - Samba Pa Ti
EXTD=YEAR: 2004
EXTT0=
EXTT1=
EXTT2=
EXTT3=
EXTT4=
EXTT5=
EXTT6=
EXTT7=
EXTT8=
EXTT9=
EXTT10=
EXTT11=
EXTT12=
EXTT13=
EXTT14=
EXTT15=
EXTT16=
EXTT17=
PLAYORDER=
